<svg xmlns="http://www.w3.org/2000/svg" viewBox="0 0 240 50" fill="none">
  <!-- Hexagonal B icon -->
  <g transform="translate(0, 2)">
    <!-- Outer hexagon -->
    <path d="M23 0L46 13.28V39.84L23 53.12L0 39.84V13.28L23 0Z" stroke="white" stroke-width="1.2" fill="none" opacity="0.9"/>
    <!-- Inner B shape -->
    <path d="M16 12H28C33 12 36.5 15.2 36.5 19.5C36.5 22.8 34.8 25.4 32 26.3C35 27.2 37.5 30 37.5 33.5C37.5 38 34 41 28 41H16V12ZM23 18V24H26.5C28.8 24 30 22.8 30 21.3C30 19.8 28.8 18 26.5 18H23ZM23 30V36.5H27C29.3 36.5 30.5 35.2 30.5 33.8C30.5 32.3 29.3 30 27 30H23Z" fill="white" opacity="0.85"/>
  </g>
  <!-- BROFOUNDER text -->
  <text x="58" y="35" font-family="system-ui, -apple-system, 'Segoe UI', sans-serif" font-size="22" font-weight="600" letter-spacing="4" fill="white" opacity="0.95">BROFOUNDER</text>
</svg>
