<svg xmlns="http://www.w3.org/2000/svg" viewBox="0 0 100 42" fill="none">
  <path d="M12.1 17.2c0-2.4 1.8-3.7 4.7-3.7 2.4 0 4.6.6 6.1 1.4v-4.1c-1.6-.6-3.8-.9-5.9-.9-7.3 0-11.4 3.9-11.4 10.1 0 9.8 13.4 8.2 13.4 12.4 0 2.7-2.2 4-5.3 4-2.8 0-5.5-.9-7.3-1.9v4.2c1.9.8 4.7 1.3 7.2 1.3 7.6 0 12-3.8 12-10.4 0-10.4-13.5-8.4-13.5-12.4zm16.1 1.4v21.5h6.3V18.6h-6.3zm3.1-6.1c2 0 3.7-1.7 3.7-3.7s-1.7-3.7-3.7-3.7-3.7 1.7-3.7 3.7 1.7 3.7 3.7 3.7zm18.3 6.1c-1.9 0-3.3.9-4.1 2.1v-1.7h-6v29.5h6.3v-9.6c.8 1.1 2.2 1.9 4.1 1.9 4.8 0 8.3-4.1 8.3-11.1s-3.5-11.1-8.6-11.1zm-1.8 17.6c-2.4 0-4.1-1.9-4.1-6.5s1.7-6.5 4.1-6.5c2.3 0 4.1 1.9 4.1 6.5s-1.8 6.5-4.1 6.5zm27.4-17.6c-2 0-3.6 1.1-4.4 2.6v-2.2h-6v21.5h6.3v-12.2c0-3 1.6-4.5 3.9-4.5.6 0 1.2.1 1.6.3V18.1c-.5-.2-1-.3-1.4-.3zm-17.2-4.9h-6.3V18.6h-3.4v4.5h3.4v10.4c0 4.7 2.4 6.7 6.9 6.7 1.6 0 2.9-.3 3.6-.6v-4.4c-.6.2-1.3.3-2.1.3-1.9 0-2.8-.8-2.8-3v-9.4h4.9v-4.5h-4.9v-5.2zm28.6 16c0-7-4.1-11.1-9.2-11.1-5.7 0-9.6 4.3-9.6 11.2 0 7.3 4.2 11.3 10.1 11.3 3.3 0 6.1-.9 7.7-2.1v-4.2c-1.4.9-3.6 1.5-5.6 1.5-3.3 0-5.8-1.5-6-4.9h12.5c0-.6.1-1.2.1-1.7zm-12.5-2.2c.3-2.9 2.2-4.5 4.3-4.5s3.8 1.6 3.9 4.5h-8.2z" fill="#635BFF"/>
</svg>
